<svg 
 xmlns="http://www.w3.org/2000/svg"
 xmlns:xlink="http://www.w3.org/1999/xlink"
 width="36px" height="43px">
<path fill-rule="evenodd"  fill="rgb(153, 153, 153)"
 d="M33.091,43.000 L2.873,43.000 C1.282,43.000 -0.001,41.702 -0.001,40.131 L-0.001,18.693 C-0.001,17.128 1.276,15.872 2.873,15.872 L6.617,15.872 L6.617,12.037 C6.617,8.820 7.889,5.800 10.201,3.526 C12.512,1.251 15.587,-0.000 18.857,-0.000 C25.604,-0.000 31.098,5.405 31.098,12.049 C31.098,12.759 30.518,13.329 29.797,13.329 C29.075,13.329 28.496,12.759 28.496,12.049 C28.496,6.818 24.173,2.560 18.857,2.560 C13.541,2.560 9.219,6.813 9.219,12.037 L9.219,15.872 L33.097,15.872 C34.692,15.872 36.005,17.128 35.999,18.693 L35.999,40.131 C35.999,41.702 34.687,43.000 33.091,43.000 ZM33.398,40.161 L33.398,18.717 C33.398,18.559 33.268,18.432 33.108,18.432 L2.891,18.432 C2.731,18.432 2.601,18.559 2.601,18.717 L2.601,40.161 C2.601,40.318 2.731,40.446 2.891,40.446 L33.115,40.446 C33.274,40.446 33.404,40.318 33.404,40.161 L33.398,40.161 ZM19.508,28.438 L19.508,33.453 C19.508,34.157 18.923,34.733 18.207,34.733 C17.491,34.733 16.906,34.157 16.906,33.453 L16.906,28.374 C16.125,27.914 15.605,27.077 15.605,26.122 C15.605,24.674 16.793,23.504 18.266,23.504 C19.739,23.504 20.927,24.674 20.927,26.122 C20.927,27.129 20.353,28.001 19.508,28.438 Z"/>
</svg>